<svg width="477" height="687" viewBox="0 0 477 687" fill="none" xmlns="http://www.w3.org/2000/svg">
<path d="M183.5 391.25C183.5 432.809 149.809 466.5 108.25 466.5C66.6906 466.5 33 432.809 33 391.25L88.4628 82.7148C93.1287 59.3339 113.655 25 162.495 25C162.495 25 162.495 25 162.495 25C162.495 25 291.663 25 315.505 25C364.345 25 384.871 59.3339 389.537 82.7148L445 391.25C445 432.809 411.309 466.5 369.75 466.5C328.191 466.5 294.5 432.809 294.5 391.25" stroke="white" stroke-width="50" stroke-linecap="round"/>
<path d="M319.25 242.097L311.373 182.553L303.866 133.703C301.992 121.505 291.497 112.5 279.156 112.5H197.554C185.121 112.5 174.578 121.636 172.809 133.942L152.105 277.942C149.939 293.01 161.628 306.5 176.851 306.5H322" stroke="white" stroke-width="25" stroke-linecap="round"/>
<path d="M271.5 162C271.5 179.949 256.949 194.5 239 194.5C221.05 194.5 206.5 179.949 206.5 162" stroke="white" stroke-width="25" stroke-linecap="round"/>
<path d="M25.2025 587.36C21.2075 587.36 17.5808 586.368 14.3225 584.385C11.0642 582.373 8.47167 579.625 6.545 576.14C4.61833 572.627 3.655 568.632 3.655 564.155C3.655 559.82 4.57583 555.924 6.4175 552.467C8.25917 548.982 10.795 546.22 14.025 544.18C17.255 542.14 20.9808 541.12 25.2025 541.12C27.9508 541.12 30.5575 541.588 33.0225 542.522C35.5158 543.457 37.6267 544.775 39.355 546.475V542.48H54.8675V586H39.355V581.495C37.315 583.422 35.105 584.881 32.725 585.872C30.3733 586.864 27.8658 587.36 25.2025 587.36ZM29.8775 574.227C31.8042 574.227 33.5042 573.802 34.9775 572.952C36.4508 572.074 37.5983 570.884 38.42 569.382C39.2417 567.881 39.6525 566.167 39.6525 564.24C39.6525 562.313 39.2275 560.599 38.3775 559.097C37.5558 557.596 36.4083 556.42 34.935 555.57C33.4617 554.692 31.7758 554.252 29.8775 554.252C28.0075 554.252 26.3217 554.692 24.82 555.57C23.3467 556.42 22.1708 557.596 21.2925 559.097C20.4425 560.599 20.0175 562.313 20.0175 564.24C20.0175 566.138 20.4425 567.852 21.2925 569.382C22.1425 570.884 23.3042 572.074 24.7775 572.952C26.2792 573.802 27.9792 574.227 29.8775 574.227ZM69.1468 586V542.48H84.6593V546.9C86.9827 544.86 89.1502 543.387 91.1618 542.48C93.1735 541.573 95.341 541.12 97.6643 541.12C100.923 541.12 103.898 541.843 106.589 543.288C109.309 544.732 111.279 546.659 112.497 549.067C114.764 546.347 117.087 544.35 119.467 543.075C121.875 541.772 124.553 541.12 127.499 541.12C130.673 541.12 133.478 541.786 135.914 543.117C138.379 544.421 140.32 546.277 141.737 548.685C143.154 551.065 143.862 553.842 143.862 557.015V586H128.349V561.222C128.349 558.814 127.726 556.916 126.479 555.527C125.233 554.139 123.533 553.445 121.379 553.445C119.934 553.445 118.674 553.742 117.597 554.337C116.549 554.904 115.727 555.697 115.132 556.717C114.537 557.737 114.239 558.913 114.239 560.245V586H98.7268V561.095C98.7268 558.8 98.1177 556.958 96.8993 555.57C95.7093 554.153 94.0235 553.445 91.8418 553.445C90.3968 553.445 89.136 553.757 88.0593 554.38C86.9827 554.975 86.1468 555.811 85.5518 556.887C84.9568 557.964 84.6593 559.211 84.6593 560.627V586H69.1468ZM175.447 587.36C171.452 587.36 167.825 586.368 164.567 584.385C161.308 582.373 158.716 579.625 156.789 576.14C154.862 572.627 153.899 568.632 153.899 564.155C153.899 559.82 154.82 555.924 156.662 552.467C158.503 548.982 161.039 546.22 164.269 544.18C167.499 542.14 171.225 541.12 175.447 541.12C178.195 541.12 180.802 541.588 183.267 542.522C185.76 543.457 187.871 544.775 189.599 546.475V542.48H205.112V586H189.599V581.495C187.559 583.422 185.349 584.881 182.969 585.872C180.617 586.864 178.11 587.36 175.447 587.36ZM180.122 574.227C182.048 574.227 183.748 573.802 185.222 572.952C186.695 572.074 187.842 570.884 188.664 569.382C189.486 567.881 189.897 566.167 189.897 564.24C189.897 562.313 189.472 560.599 188.622 559.097C187.8 557.596 186.652 556.42 185.179 555.57C183.706 554.692 182.02 554.252 180.122 554.252C178.252 554.252 176.566 554.692 175.064 555.57C173.591 556.42 172.415 557.596 171.537 559.097C170.687 560.599 170.262 562.313 170.262 564.24C170.262 566.138 170.687 567.852 171.537 569.382C172.387 570.884 173.548 572.074 175.022 572.952C176.523 573.802 178.223 574.227 180.122 574.227ZM219.391 586V542.48H234.903V548.642C236.632 546.262 238.686 544.421 241.066 543.117C243.446 541.786 245.953 541.12 248.588 541.12C250.203 541.12 251.889 541.375 253.646 541.885C255.403 542.395 256.862 543.061 258.023 543.882L251.563 556.93C250.543 556.222 249.353 555.655 247.993 555.23C246.633 554.777 245.373 554.55 244.211 554.55C242.624 554.55 241.108 554.961 239.663 555.782C238.247 556.604 237.099 557.681 236.221 559.012C235.343 560.316 234.903 561.732 234.903 563.262V586H219.391ZM281.116 587.36C277.121 587.36 273.494 586.368 270.236 584.385C266.977 582.373 264.385 579.625 262.458 576.14C260.531 572.627 259.568 568.632 259.568 564.155C259.568 559.82 260.489 555.924 262.331 552.467C264.172 548.982 266.708 546.22 269.938 544.18C273.168 542.14 276.894 541.12 281.116 541.12C283.864 541.12 286.471 541.588 288.936 542.522C291.429 543.457 293.54 544.775 295.268 546.475V542.48H310.781V586H295.268V581.495C293.228 583.422 291.018 584.881 288.638 585.872C286.286 586.864 283.779 587.36 281.116 587.36ZM285.791 574.227C287.717 574.227 289.417 573.802 290.891 572.952C292.364 572.074 293.511 570.884 294.333 569.382C295.155 567.881 295.566 566.167 295.566 564.24C295.566 562.313 295.141 560.599 294.291 559.097C293.469 557.596 292.321 556.42 290.848 555.57C289.375 554.692 287.689 554.252 285.791 554.252C283.921 554.252 282.235 554.692 280.733 555.57C279.26 556.42 278.084 557.596 277.206 559.097C276.356 560.599 275.931 562.313 275.931 564.24C275.931 566.138 276.356 567.852 277.206 569.382C278.056 570.884 279.217 572.074 280.691 572.952C282.192 573.802 283.892 574.227 285.791 574.227ZM345.502 587.36C342.159 587.36 339 586.765 336.025 585.575C333.078 584.385 330.472 582.727 328.205 580.602C325.938 578.477 324.153 576.027 322.85 573.25C321.547 570.445 320.895 567.456 320.895 564.282C320.895 561.251 321.504 558.361 322.722 555.612C323.969 552.836 325.697 550.357 327.907 548.175C330.117 545.993 332.71 544.279 335.685 543.032C338.66 541.757 341.904 541.12 345.417 541.12C348.222 541.12 350.914 541.517 353.492 542.31C356.099 543.075 358.153 544.038 359.655 545.2L354.512 555.655C352.756 554.408 350.546 553.785 347.882 553.785C345.531 553.785 343.562 554.309 341.975 555.357C340.388 556.406 339.198 557.737 338.405 559.352C337.64 560.967 337.257 562.597 337.257 564.24C337.257 566.138 337.697 567.881 338.575 569.467C339.453 571.054 340.7 572.329 342.315 573.292C343.93 574.227 345.814 574.695 347.967 574.695C349.327 574.695 350.574 574.525 351.707 574.185C352.841 573.817 353.776 573.363 354.512 572.825L359.655 583.28C358.125 584.413 356.085 585.377 353.535 586.17C350.985 586.963 348.307 587.36 345.502 587.36ZM369.054 586V512.9H384.567V546.9C386.437 545.115 388.632 543.712 391.154 542.692C393.676 541.644 396.325 541.12 399.102 541.12C402.445 541.12 405.406 541.857 407.984 543.33C410.562 544.803 412.588 546.843 414.062 549.45C415.563 552.028 416.314 554.989 416.314 558.332V586H400.802V561.647C400.802 559.041 400.079 556.972 398.634 555.442C397.189 553.912 395.234 553.147 392.769 553.147C391.097 553.147 389.652 553.502 388.434 554.21C387.216 554.89 386.267 555.839 385.587 557.057C384.907 558.247 384.567 559.622 384.567 561.18V586H369.054ZM450.855 587.36C446.095 587.36 441.817 586.34 438.02 584.3C434.224 582.26 431.22 579.497 429.01 576.012C426.829 572.527 425.738 568.589 425.738 564.197C425.738 560.939 426.361 557.922 427.608 555.145C428.854 552.34 430.597 549.889 432.835 547.792C435.074 545.667 437.68 544.024 440.655 542.862C443.659 541.701 446.903 541.12 450.388 541.12C454.921 541.12 458.888 542.069 462.288 543.967C465.716 545.837 468.394 548.458 470.32 551.83C472.247 555.173 473.21 559.055 473.21 563.475C473.21 563.843 473.196 564.183 473.168 564.495C473.168 564.807 473.125 565.43 473.04 566.365H441.718C441.718 568.122 442.129 569.652 442.95 570.955C443.772 572.258 444.934 573.278 446.435 574.015C447.937 574.723 449.708 575.078 451.748 575.078C453.646 575.078 455.304 574.723 456.72 574.015C458.137 573.278 459.639 572.074 461.225 570.402L472.36 575.97C470.32 579.54 467.388 582.331 463.563 584.342C459.766 586.354 455.53 587.36 450.855 587.36ZM442.185 558.545H457.995C457.797 557.128 457.344 555.938 456.635 554.975C455.927 554.012 455.02 553.289 453.915 552.807C452.81 552.297 451.521 552.042 450.048 552.042C448.518 552.042 447.172 552.297 446.01 552.807C444.877 553.317 443.984 554.054 443.333 555.017C442.681 555.981 442.299 557.157 442.185 558.545Z" fill="white"/>
<path d="M145.443 666.36C141.844 666.36 138.671 665.496 135.922 663.767C133.174 662.011 131.035 659.532 129.505 656.33L132.82 652.76C134.18 655.537 135.951 657.704 138.133 659.262C140.314 660.792 142.737 661.557 145.4 661.557C147.185 661.557 148.814 661.189 150.288 660.452C151.789 659.716 152.979 658.667 153.858 657.307C154.764 655.919 155.218 654.276 155.218 652.377C155.218 650.649 154.793 649.289 153.943 648.297C153.121 647.306 151.903 646.456 150.288 645.747C148.701 645.011 146.718 644.189 144.338 643.282C142.496 642.546 140.711 641.71 138.983 640.775C137.254 639.84 135.823 638.664 134.69 637.247C133.585 635.802 133.033 633.975 133.033 631.765C133.033 629.527 133.628 627.543 134.818 625.815C136.008 624.058 137.651 622.684 139.748 621.692C141.844 620.672 144.224 620.162 146.888 620.162C149.324 620.162 151.605 620.687 153.73 621.735C155.883 622.783 157.81 624.271 159.51 626.197L156.663 629.81C154.056 626.382 150.812 624.667 146.93 624.667C144.55 624.667 142.609 625.291 141.108 626.537C139.634 627.784 138.898 629.413 138.898 631.425C138.898 632.87 139.365 634.074 140.3 635.037C141.235 636.001 142.453 636.822 143.955 637.502C145.485 638.182 147.128 638.862 148.885 639.542C151.435 640.506 153.645 641.469 155.515 642.432C157.413 643.396 158.887 644.628 159.935 646.13C160.983 647.603 161.508 649.615 161.508 652.165C161.508 655.083 160.828 657.605 159.468 659.73C158.108 661.855 156.209 663.498 153.773 664.66C151.364 665.793 148.588 666.36 145.443 666.36ZM186.313 666.36C183.055 666.36 180.519 665.269 178.705 663.087C176.92 660.877 176.028 657.775 176.028 653.78V626.155H171.608V621.48H176.028V605.202H182.233V621.48H193.07V626.155H182.233V653.44C182.233 655.848 182.7 657.69 183.635 658.965C184.57 660.24 185.902 660.877 187.63 660.877C189.302 660.877 190.775 660.41 192.05 659.475L193.623 664.405C192.66 665 191.526 665.468 190.223 665.808C188.92 666.176 187.616 666.36 186.313 666.36ZM227.967 666.36C223.434 666.36 219.339 665.383 215.684 663.427C212.058 661.472 209.182 658.752 207.057 655.267C204.932 651.782 203.869 647.773 203.869 643.24C203.869 638.678 204.932 634.669 207.057 631.212C209.182 627.727 212.058 625.007 215.684 623.052C219.311 621.097 223.405 620.12 227.967 620.12C232.5 620.12 236.58 621.097 240.207 623.052C243.862 625.007 246.752 627.727 248.877 631.212C251.002 634.669 252.064 638.678 252.064 643.24C252.064 647.773 251.002 651.782 248.877 655.267C246.752 658.752 243.862 661.472 240.207 663.427C236.58 665.383 232.5 666.36 227.967 666.36ZM227.967 660.835C231.367 660.835 234.399 660.084 237.062 658.582C239.725 657.081 241.822 655.012 243.352 652.377C244.882 649.714 245.647 646.668 245.647 643.24C245.647 639.812 244.882 636.78 243.352 634.145C241.822 631.482 239.725 629.399 237.062 627.897C234.399 626.396 231.367 625.645 227.967 625.645C224.567 625.645 221.535 626.396 218.872 627.897C216.209 629.399 214.112 631.482 212.582 634.145C211.052 636.78 210.287 639.812 210.287 643.24C210.287 646.64 211.052 649.672 212.582 652.335C214.112 654.998 216.209 657.081 218.872 658.582C221.535 660.084 224.567 660.835 227.967 660.835ZM266.867 665V621.48H273.072V627.897C274.46 625.347 276.245 623.421 278.427 622.117C280.637 620.786 283.187 620.12 286.077 620.12C287.352 620.12 288.641 620.262 289.944 620.545C291.276 620.828 292.424 621.197 293.387 621.65L290.837 626.877C289.987 626.452 289.009 626.127 287.904 625.9C286.828 625.673 285.794 625.56 284.802 625.56C282.79 625.56 280.892 626.07 279.107 627.09C277.322 628.11 275.863 629.442 274.729 631.085C273.624 632.7 273.072 634.428 273.072 636.27V665H266.867ZM324.704 666.36C320.142 666.36 316.062 665.354 312.464 663.342C308.894 661.331 306.089 658.597 304.049 655.14C302.009 651.655 300.989 647.745 300.989 643.41C300.989 640.152 301.569 637.12 302.731 634.315C303.921 631.482 305.564 629.002 307.661 626.877C309.758 624.752 312.194 623.095 314.971 621.905C317.748 620.715 320.709 620.12 323.854 620.12C328.16 620.12 331.985 621.069 335.329 622.967C338.7 624.837 341.364 627.43 343.319 630.745C345.302 634.06 346.35 637.885 346.464 642.22C346.464 642.56 346.449 642.843 346.421 643.07C346.421 643.268 346.393 643.523 346.336 643.835H307.151C307.151 647.235 307.916 650.238 309.446 652.845C310.976 655.452 313.073 657.506 315.736 659.007C318.428 660.481 321.502 661.217 324.959 661.217C328.245 661.217 331.192 660.537 333.799 659.177C336.434 657.789 338.629 655.806 340.386 653.227L344.976 655.692C342.908 659.064 340.089 661.685 336.519 663.555C332.977 665.425 329.039 666.36 324.704 666.36ZM307.491 639.16H340.259C339.89 636.44 338.941 634.046 337.411 631.977C335.881 629.881 333.94 628.237 331.589 627.047C329.265 625.857 326.715 625.262 323.939 625.262C321.077 625.262 318.47 625.857 316.119 627.047C313.767 628.209 311.826 629.838 310.296 631.935C308.794 634.003 307.859 636.412 307.491 639.16Z" fill="white"/>
</svg>
