<svg width="2436" height="492" viewBox="0 0 2436 492" fill="none" xmlns="http://www.w3.org/2000/svg">
<path d="M175.5 391.25C175.5 432.809 141.809 466.5 100.25 466.5C58.6906 466.5 25 432.809 25 391.25L80.4628 82.7148C85.1287 59.3339 105.655 25 154.495 25C154.495 25 154.495 25 154.495 25C154.495 25 283.663 25 307.505 25C356.345 25 376.871 59.3339 381.537 82.7148L437 391.25C437 432.809 403.309 466.5 361.75 466.5C320.191 466.5 286.5 432.809 286.5 391.25" stroke="url(#paint0_linear_103_3)" stroke-width="50" stroke-linecap="round"/>
<path d="M311.25 242.097L303.373 182.553L295.866 133.703C293.992 121.505 283.497 112.5 271.156 112.5H189.554C177.121 112.5 166.578 121.636 164.809 133.942L144.105 277.942C141.939 293.01 153.628 306.5 168.851 306.5H314" stroke="#310057" stroke-width="25" stroke-linecap="round"/>
<path d="M263.5 162C263.5 179.949 248.949 194.5 231 194.5C213.05 194.5 198.5 179.949 198.5 162" stroke="#310057" stroke-width="25" stroke-linecap="round"/>
<path d="M516.6 417V212.2H589.6V233C600.533 223.4 610.733 216.467 620.2 212.2C629.667 207.933 639.867 205.8 650.8 205.8C666.133 205.8 680.133 209.2 692.8 216C705.6 222.8 714.867 231.867 720.6 243.2C731.267 230.4 742.2 221 753.4 215C764.733 208.867 777.333 205.8 791.2 205.8C806.133 205.8 819.333 208.933 830.8 215.2C842.4 221.333 851.533 230.067 858.2 241.4C864.867 252.6 868.2 265.667 868.2 280.6V417H795.2V300.4C795.2 289.067 792.267 280.133 786.4 273.6C780.533 267.067 772.533 263.8 762.4 263.8C755.6 263.8 749.667 265.2 744.6 268C739.667 270.667 735.8 274.4 733 279.2C730.2 284 728.8 289.533 728.8 295.8V417H655.8V299.8C655.8 289 652.933 280.333 647.2 273.8C641.6 267.133 633.667 263.8 623.4 263.8C616.6 263.8 610.667 265.267 605.6 268.2C600.533 271 596.6 274.933 593.8 280C591 285.067 589.6 290.933 589.6 297.6V417H516.6ZM1016.83 423.4C998.034 423.4 980.968 418.733 965.634 409.4C950.301 399.933 938.101 387 929.034 370.6C919.968 354.067 915.434 335.267 915.434 314.2C915.434 293.8 919.768 275.467 928.434 259.2C937.101 242.8 949.034 229.8 964.234 220.2C979.434 210.6 996.968 205.8 1016.83 205.8C1029.77 205.8 1042.03 208 1053.63 212.4C1065.37 216.8 1075.3 223 1083.43 231V212.2H1156.43V417H1083.43V395.8C1073.83 404.867 1063.43 411.733 1052.23 416.4C1041.17 421.067 1029.37 423.4 1016.83 423.4ZM1038.83 361.6C1047.9 361.6 1055.9 359.6 1062.83 355.6C1069.77 351.467 1075.17 345.867 1079.03 338.8C1082.9 331.733 1084.83 323.667 1084.83 314.6C1084.83 305.533 1082.83 297.467 1078.83 290.4C1074.97 283.333 1069.57 277.8 1062.63 273.8C1055.7 269.667 1047.77 267.6 1038.83 267.6C1030.03 267.6 1022.1 269.667 1015.03 273.8C1008.1 277.8 1002.57 283.333 998.434 290.4C994.434 297.467 992.434 305.533 992.434 314.6C992.434 323.533 994.434 331.6 998.434 338.8C1002.43 345.867 1007.9 351.467 1014.83 355.6C1021.9 359.6 1029.9 361.6 1038.83 361.6ZM1223.63 417V212.2H1296.63V241.2C1304.76 230 1314.43 221.333 1325.63 215.2C1336.83 208.933 1348.63 205.8 1361.03 205.8C1368.63 205.8 1376.56 207 1384.83 209.4C1393.1 211.8 1399.96 214.933 1405.43 218.8L1375.03 280.2C1370.23 276.867 1364.63 274.2 1358.23 272.2C1351.83 270.067 1345.9 269 1340.43 269C1332.96 269 1325.83 270.933 1319.03 274.8C1312.36 278.667 1306.96 283.733 1302.83 290C1298.7 296.133 1296.63 302.8 1296.63 310V417H1223.63ZM1514.1 423.4C1495.3 423.4 1478.23 418.733 1462.9 409.4C1447.57 399.933 1435.37 387 1426.3 370.6C1417.23 354.067 1412.7 335.267 1412.7 314.2C1412.7 293.8 1417.03 275.467 1425.7 259.2C1434.37 242.8 1446.3 229.8 1461.5 220.2C1476.7 210.6 1494.23 205.8 1514.1 205.8C1527.03 205.8 1539.3 208 1550.9 212.4C1562.63 216.8 1572.57 223 1580.7 231V212.2H1653.7V417H1580.7V395.8C1571.1 404.867 1560.7 411.733 1549.5 416.4C1538.43 421.067 1526.63 423.4 1514.1 423.4ZM1536.1 361.6C1545.17 361.6 1553.17 359.6 1560.1 355.6C1567.03 351.467 1572.43 345.867 1576.3 338.8C1580.17 331.733 1582.1 323.667 1582.1 314.6C1582.1 305.533 1580.1 297.467 1576.1 290.4C1572.23 283.333 1566.83 277.8 1559.9 273.8C1552.97 269.667 1545.03 267.6 1536.1 267.6C1527.3 267.6 1519.37 269.667 1512.3 273.8C1505.37 277.8 1499.83 283.333 1495.7 290.4C1491.7 297.467 1489.7 305.533 1489.7 314.6C1489.7 323.533 1491.7 331.6 1495.7 338.8C1499.7 345.867 1505.17 351.467 1512.1 355.6C1519.17 359.6 1527.17 361.6 1536.1 361.6ZM1817.1 423.4C1801.36 423.4 1786.5 420.6 1772.5 415C1758.63 409.4 1746.36 401.6 1735.7 391.6C1725.03 381.6 1716.63 370.067 1710.5 357C1704.36 343.8 1701.3 329.733 1701.3 314.8C1701.3 300.533 1704.16 286.933 1709.9 274C1715.76 260.933 1723.9 249.267 1734.3 239C1744.7 228.733 1756.9 220.667 1770.9 214.8C1784.9 208.8 1800.16 205.8 1816.7 205.8C1829.9 205.8 1842.56 207.667 1854.7 211.4C1866.96 215 1876.63 219.533 1883.7 225L1859.5 274.2C1851.23 268.333 1840.83 265.4 1828.3 265.4C1817.23 265.4 1807.96 267.867 1800.5 272.8C1793.03 277.733 1787.43 284 1783.7 291.6C1780.1 299.2 1778.3 306.867 1778.3 314.6C1778.3 323.533 1780.36 331.733 1784.5 339.2C1788.63 346.667 1794.5 352.667 1802.1 357.2C1809.7 361.6 1818.56 363.8 1828.7 363.8C1835.1 363.8 1840.96 363 1846.3 361.4C1851.63 359.667 1856.03 357.533 1859.5 355L1883.7 404.2C1876.5 409.533 1866.9 414.067 1854.9 417.8C1842.9 421.533 1830.3 423.4 1817.1 423.4ZM1927.93 417V73H2000.93V233C2009.73 224.6 2020.06 218 2031.93 213.2C2043.79 208.267 2056.26 205.8 2069.33 205.8C2085.06 205.8 2098.99 209.267 2111.13 216.2C2123.26 223.133 2132.79 232.733 2139.73 245C2146.79 257.133 2150.33 271.067 2150.33 286.8V417H2077.33V302.4C2077.33 290.133 2073.93 280.4 2067.13 273.2C2060.33 266 2051.13 262.4 2039.53 262.4C2031.66 262.4 2024.86 264.067 2019.13 267.4C2013.39 270.6 2008.93 275.067 2005.73 280.8C2002.53 286.4 2000.93 292.867 2000.93 300.2V417H1927.93ZM2312.88 423.4C2290.48 423.4 2270.34 418.6 2252.48 409C2234.61 399.4 2220.48 386.4 2210.08 370C2199.81 353.6 2194.68 335.067 2194.68 314.4C2194.68 299.067 2197.61 284.867 2203.48 271.8C2209.34 258.6 2217.54 247.067 2228.08 237.2C2238.61 227.2 2250.88 219.467 2264.88 214C2279.01 208.533 2294.28 205.8 2310.68 205.8C2332.01 205.8 2350.68 210.267 2366.68 219.2C2382.81 228 2395.41 240.333 2404.48 256.2C2413.54 271.933 2418.08 290.2 2418.08 311C2418.08 312.733 2418.01 314.333 2417.88 315.8C2417.88 317.267 2417.68 320.2 2417.28 324.6H2269.88C2269.88 332.867 2271.81 340.067 2275.68 346.2C2279.54 352.333 2285.01 357.133 2292.08 360.6C2299.14 363.933 2307.48 365.6 2317.08 365.6C2326.01 365.6 2333.81 363.933 2340.48 360.6C2347.14 357.133 2354.21 351.467 2361.68 343.6L2414.08 369.8C2404.48 386.6 2390.68 399.733 2372.68 409.2C2354.81 418.667 2334.88 423.4 2312.88 423.4ZM2272.08 287.8H2346.48C2345.54 281.133 2343.41 275.533 2340.08 271C2336.74 266.467 2332.48 263.067 2327.28 260.8C2322.08 258.4 2316.01 257.2 2309.08 257.2C2301.88 257.2 2295.54 258.4 2290.07 260.8C2284.74 263.2 2280.54 266.667 2277.48 271.2C2274.41 275.733 2272.61 281.267 2272.08 287.8Z" fill="#310057"/>
<defs>
<linearGradient id="paint0_linear_103_3" x1="231" y1="25" x2="231" y2="466.5" gradientUnits="userSpaceOnUse">
<stop stop-color="#00D6C9"/>
<stop offset="1" stop-color="#310057"/>
</linearGradient>
</defs>
</svg>
