<svg width="1080" height="1080" viewBox="0 0 1080 1080" fill="none" xmlns="http://www.w3.org/2000/svg">
<rect width="1080" height="1080" fill="white"/>
<path d="M221.5 685.25C221.5 726.809 187.809 760.5 146.25 760.5C104.691 760.5 71 726.809 71 685.25L126.463 376.715C131.129 353.334 151.655 319 200.495 319C200.495 319 200.495 319 200.495 319C200.495 319 329.663 319 353.505 319C402.345 319 422.871 353.334 427.537 376.715L483 685.25C483 726.809 449.309 760.5 407.75 760.5C366.191 760.5 332.5 726.809 332.5 685.25" stroke="url(#paint0_linear_4_31)" stroke-width="50" stroke-linecap="round"/>
<path d="M357.25 536.097L349.373 476.553L341.866 427.703C339.992 415.505 329.497 406.5 317.156 406.5H235.554C223.121 406.5 212.578 415.636 210.809 427.942L190.105 571.942C187.939 587.01 199.628 600.5 214.851 600.5H360" stroke="#310057" stroke-width="25" stroke-linecap="round"/>
<path d="M309.5 456C309.5 473.949 294.949 488.5 277 488.5C259.05 488.5 244.5 473.949 244.5 456" stroke="#310057" stroke-width="25" stroke-linecap="round"/>
<path d="M557.203 527.36C553.208 527.36 549.581 526.368 546.323 524.385C543.064 522.373 540.472 519.625 538.545 516.14C536.618 512.627 535.655 508.632 535.655 504.155C535.655 499.82 536.576 495.924 538.418 492.467C540.259 488.982 542.795 486.22 546.025 484.18C549.255 482.14 552.981 481.12 557.203 481.12C559.951 481.12 562.558 481.588 565.023 482.522C567.516 483.457 569.627 484.775 571.355 486.475V482.48H586.868V526H571.355V521.495C569.315 523.422 567.105 524.881 564.725 525.872C562.373 526.864 559.866 527.36 557.203 527.36ZM561.878 514.227C563.804 514.227 565.504 513.802 566.978 512.952C568.451 512.074 569.598 510.884 570.42 509.382C571.242 507.881 571.653 506.167 571.653 504.24C571.653 502.313 571.228 500.599 570.378 499.097C569.556 497.596 568.408 496.42 566.935 495.57C565.462 494.692 563.776 494.252 561.878 494.252C560.008 494.252 558.322 494.692 556.82 495.57C555.347 496.42 554.171 497.596 553.293 499.097C552.443 500.599 552.018 502.313 552.018 504.24C552.018 506.138 552.443 507.852 553.293 509.382C554.143 510.884 555.304 512.074 556.778 512.952C558.279 513.802 559.979 514.227 561.878 514.227ZM601.147 526V482.48H616.659V486.9C618.983 484.86 621.15 483.387 623.162 482.48C625.174 481.573 627.341 481.12 629.664 481.12C632.923 481.12 635.898 481.843 638.589 483.288C641.309 484.732 643.279 486.659 644.497 489.067C646.764 486.347 649.087 484.35 651.467 483.075C653.875 481.772 656.553 481.12 659.499 481.12C662.673 481.12 665.478 481.786 667.914 483.117C670.379 484.421 672.32 486.277 673.737 488.685C675.154 491.065 675.862 493.842 675.862 497.015V526H660.349V501.222C660.349 498.814 659.726 496.916 658.479 495.527C657.233 494.139 655.533 493.445 653.379 493.445C651.934 493.445 650.674 493.742 649.597 494.337C648.549 494.904 647.727 495.697 647.132 496.717C646.537 497.737 646.239 498.913 646.239 500.245V526H630.727V501.095C630.727 498.8 630.118 496.958 628.899 495.57C627.709 494.153 626.024 493.445 623.842 493.445C622.397 493.445 621.136 493.757 620.059 494.38C618.983 494.975 618.147 495.811 617.552 496.887C616.957 497.964 616.659 499.211 616.659 500.627V526H601.147ZM707.447 527.36C703.452 527.36 699.825 526.368 696.567 524.385C693.308 522.373 690.716 519.625 688.789 516.14C686.862 512.627 685.899 508.632 685.899 504.155C685.899 499.82 686.82 495.924 688.662 492.467C690.503 488.982 693.039 486.22 696.269 484.18C699.499 482.14 703.225 481.12 707.447 481.12C710.195 481.12 712.802 481.588 715.267 482.522C717.76 483.457 719.871 484.775 721.599 486.475V482.48H737.112V526H721.599V521.495C719.559 523.422 717.349 524.881 714.969 525.872C712.617 526.864 710.11 527.36 707.447 527.36ZM712.122 514.227C714.048 514.227 715.748 513.802 717.222 512.952C718.695 512.074 719.842 510.884 720.664 509.382C721.486 507.881 721.897 506.167 721.897 504.24C721.897 502.313 721.472 500.599 720.622 499.097C719.8 497.596 718.652 496.42 717.179 495.57C715.706 494.692 714.02 494.252 712.122 494.252C710.252 494.252 708.566 494.692 707.064 495.57C705.591 496.42 704.415 497.596 703.537 499.097C702.687 500.599 702.262 502.313 702.262 504.24C702.262 506.138 702.687 507.852 703.537 509.382C704.387 510.884 705.548 512.074 707.022 512.952C708.523 513.802 710.223 514.227 712.122 514.227ZM751.391 526V482.48H766.903V488.642C768.632 486.262 770.686 484.421 773.066 483.117C775.446 481.786 777.953 481.12 780.588 481.12C782.203 481.12 783.889 481.375 785.646 481.885C787.403 482.395 788.862 483.061 790.023 483.882L783.563 496.93C782.543 496.222 781.353 495.655 779.993 495.23C778.633 494.777 777.373 494.55 776.211 494.55C774.624 494.55 773.108 494.961 771.663 495.782C770.247 496.604 769.099 497.681 768.221 499.012C767.343 500.316 766.903 501.732 766.903 503.262V526H751.391ZM813.116 527.36C809.121 527.36 805.494 526.368 802.236 524.385C798.977 522.373 796.385 519.625 794.458 516.14C792.531 512.627 791.568 508.632 791.568 504.155C791.568 499.82 792.489 495.924 794.331 492.467C796.172 488.982 798.708 486.22 801.938 484.18C805.168 482.14 808.894 481.12 813.116 481.12C815.864 481.12 818.471 481.588 820.936 482.522C823.429 483.457 825.54 484.775 827.268 486.475V482.48H842.781V526H827.268V521.495C825.228 523.422 823.018 524.881 820.638 525.872C818.286 526.864 815.779 527.36 813.116 527.36ZM817.791 514.227C819.717 514.227 821.417 513.802 822.891 512.952C824.364 512.074 825.511 510.884 826.333 509.382C827.155 507.881 827.566 506.167 827.566 504.24C827.566 502.313 827.141 500.599 826.291 499.097C825.469 497.596 824.321 496.42 822.848 495.57C821.375 494.692 819.689 494.252 817.791 494.252C815.921 494.252 814.235 494.692 812.733 495.57C811.26 496.42 810.084 497.596 809.206 499.097C808.356 500.599 807.931 502.313 807.931 504.24C807.931 506.138 808.356 507.852 809.206 509.382C810.056 510.884 811.217 512.074 812.691 512.952C814.192 513.802 815.892 514.227 817.791 514.227ZM877.502 527.36C874.159 527.36 871 526.765 868.025 525.575C865.078 524.385 862.472 522.727 860.205 520.602C857.938 518.477 856.153 516.027 854.85 513.25C853.547 510.445 852.895 507.456 852.895 504.282C852.895 501.251 853.504 498.361 854.722 495.612C855.969 492.836 857.697 490.357 859.907 488.175C862.117 485.993 864.71 484.279 867.685 483.032C870.66 481.757 873.904 481.12 877.417 481.12C880.222 481.12 882.914 481.517 885.492 482.31C888.099 483.075 890.153 484.038 891.655 485.2L886.512 495.655C884.756 494.408 882.546 493.785 879.882 493.785C877.531 493.785 875.562 494.309 873.975 495.357C872.388 496.406 871.198 497.737 870.405 499.352C869.64 500.967 869.257 502.597 869.257 504.24C869.257 506.138 869.697 507.881 870.575 509.467C871.453 511.054 872.7 512.329 874.315 513.292C875.93 514.227 877.814 514.695 879.967 514.695C881.327 514.695 882.574 514.525 883.707 514.185C884.841 513.817 885.776 513.363 886.512 512.825L891.655 523.28C890.125 524.413 888.085 525.377 885.535 526.17C882.985 526.963 880.307 527.36 877.502 527.36ZM901.054 526V452.9H916.567V486.9C918.437 485.115 920.632 483.712 923.154 482.692C925.676 481.644 928.325 481.12 931.102 481.12C934.445 481.12 937.406 481.857 939.984 483.33C942.562 484.803 944.588 486.843 946.062 489.45C947.563 492.028 948.314 494.989 948.314 498.332V526H932.802V501.647C932.802 499.041 932.079 496.972 930.634 495.442C929.189 493.912 927.234 493.147 924.769 493.147C923.097 493.147 921.652 493.502 920.434 494.21C919.216 494.89 918.267 495.839 917.587 497.057C916.907 498.247 916.567 499.622 916.567 501.18V526H901.054ZM982.855 527.36C978.095 527.36 973.817 526.34 970.02 524.3C966.224 522.26 963.22 519.497 961.01 516.012C958.829 512.527 957.738 508.589 957.738 504.197C957.738 500.939 958.361 497.922 959.608 495.145C960.854 492.34 962.597 489.889 964.835 487.792C967.074 485.667 969.68 484.024 972.655 482.862C975.659 481.701 978.903 481.12 982.388 481.12C986.921 481.12 990.888 482.069 994.288 483.967C997.716 485.837 1000.39 488.458 1002.32 491.83C1004.25 495.173 1005.21 499.055 1005.21 503.475C1005.21 503.843 1005.2 504.183 1005.17 504.495C1005.17 504.807 1005.13 505.43 1005.04 506.365H973.718C973.718 508.122 974.129 509.652 974.95 510.955C975.772 512.258 976.934 513.278 978.435 514.015C979.937 514.723 981.708 515.078 983.748 515.078C985.646 515.078 987.304 514.723 988.72 514.015C990.137 513.278 991.639 512.074 993.225 510.402L1004.36 515.97C1002.32 519.54 999.388 522.331 995.563 524.342C991.766 526.354 987.53 527.36 982.855 527.36ZM974.185 498.545H989.995C989.797 497.128 989.344 495.938 988.635 494.975C987.927 494.012 987.02 493.289 985.915 492.807C984.81 492.297 983.521 492.042 982.048 492.042C980.518 492.042 979.172 492.297 978.01 492.807C976.877 493.317 975.984 494.054 975.333 495.017C974.681 495.981 974.299 497.157 974.185 498.545Z" fill="#310057"/>
<path d="M552.443 606.36C548.844 606.36 545.671 605.496 542.922 603.767C540.174 602.011 538.035 599.532 536.505 596.33L539.82 592.76C541.18 595.537 542.951 597.704 545.133 599.262C547.314 600.792 549.737 601.557 552.4 601.557C554.185 601.557 555.814 601.189 557.288 600.452C558.789 599.716 559.979 598.667 560.858 597.307C561.764 595.919 562.218 594.276 562.218 592.377C562.218 590.649 561.793 589.289 560.943 588.297C560.121 587.306 558.903 586.456 557.288 585.747C555.701 585.011 553.718 584.189 551.338 583.282C549.496 582.546 547.711 581.71 545.983 580.775C544.254 579.84 542.823 578.664 541.69 577.247C540.585 575.802 540.033 573.975 540.033 571.765C540.033 569.527 540.628 567.543 541.818 565.815C543.008 564.058 544.651 562.684 546.748 561.692C548.844 560.672 551.224 560.162 553.888 560.162C556.324 560.162 558.605 560.687 560.73 561.735C562.883 562.783 564.81 564.271 566.51 566.197L563.663 569.81C561.056 566.382 557.812 564.667 553.93 564.667C551.55 564.667 549.609 565.291 548.108 566.537C546.634 567.784 545.898 569.413 545.898 571.425C545.898 572.87 546.365 574.074 547.3 575.037C548.235 576.001 549.453 576.822 550.955 577.502C552.485 578.182 554.128 578.862 555.885 579.542C558.435 580.506 560.645 581.469 562.515 582.432C564.413 583.396 565.887 584.628 566.935 586.13C567.983 587.603 568.508 589.615 568.508 592.165C568.508 595.083 567.828 597.605 566.468 599.73C565.108 601.855 563.209 603.498 560.773 604.66C558.364 605.793 555.588 606.36 552.443 606.36ZM593.313 606.36C590.055 606.36 587.519 605.269 585.705 603.087C583.92 600.877 583.028 597.775 583.028 593.78V566.155H578.608V561.48H583.028V545.202H589.233V561.48H600.07V566.155H589.233V593.44C589.233 595.848 589.7 597.69 590.635 598.965C591.57 600.24 592.902 600.877 594.63 600.877C596.302 600.877 597.775 600.41 599.05 599.475L600.623 604.405C599.66 605 598.526 605.468 597.223 605.808C595.92 606.176 594.616 606.36 593.313 606.36ZM634.967 606.36C630.434 606.36 626.339 605.383 622.684 603.427C619.058 601.472 616.182 598.752 614.057 595.267C611.932 591.782 610.869 587.773 610.869 583.24C610.869 578.678 611.932 574.669 614.057 571.212C616.182 567.727 619.058 565.007 622.684 563.052C626.311 561.097 630.405 560.12 634.967 560.12C639.5 560.12 643.58 561.097 647.207 563.052C650.862 565.007 653.752 567.727 655.877 571.212C658.002 574.669 659.064 578.678 659.064 583.24C659.064 587.773 658.002 591.782 655.877 595.267C653.752 598.752 650.862 601.472 647.207 603.427C643.58 605.383 639.5 606.36 634.967 606.36ZM634.967 600.835C638.367 600.835 641.399 600.084 644.062 598.582C646.725 597.081 648.822 595.012 650.352 592.377C651.882 589.714 652.647 586.668 652.647 583.24C652.647 579.812 651.882 576.78 650.352 574.145C648.822 571.482 646.725 569.399 644.062 567.897C641.399 566.396 638.367 565.645 634.967 565.645C631.567 565.645 628.535 566.396 625.872 567.897C623.209 569.399 621.112 571.482 619.582 574.145C618.052 576.78 617.287 579.812 617.287 583.24C617.287 586.64 618.052 589.672 619.582 592.335C621.112 594.998 623.209 597.081 625.872 598.582C628.535 600.084 631.567 600.835 634.967 600.835ZM673.867 605V561.48H680.072V567.897C681.46 565.347 683.245 563.421 685.427 562.117C687.637 560.786 690.187 560.12 693.077 560.12C694.352 560.12 695.641 560.262 696.944 560.545C698.276 560.828 699.424 561.197 700.387 561.65L697.837 566.877C696.987 566.452 696.009 566.127 694.904 565.9C693.828 565.673 692.794 565.56 691.802 565.56C689.79 565.56 687.892 566.07 686.107 567.09C684.322 568.11 682.863 569.442 681.729 571.085C680.624 572.7 680.072 574.428 680.072 576.27V605H673.867ZM731.704 606.36C727.142 606.36 723.062 605.354 719.464 603.342C715.894 601.331 713.089 598.597 711.049 595.14C709.009 591.655 707.989 587.745 707.989 583.41C707.989 580.152 708.569 577.12 709.731 574.315C710.921 571.482 712.564 569.002 714.661 566.877C716.758 564.752 719.194 563.095 721.971 561.905C724.748 560.715 727.709 560.12 730.854 560.12C735.16 560.12 738.985 561.069 742.329 562.967C745.7 564.837 748.364 567.43 750.319 570.745C752.302 574.06 753.35 577.885 753.464 582.22C753.464 582.56 753.449 582.843 753.421 583.07C753.421 583.268 753.393 583.523 753.336 583.835H714.151C714.151 587.235 714.916 590.238 716.446 592.845C717.976 595.452 720.073 597.506 722.736 599.007C725.428 600.481 728.502 601.217 731.959 601.217C735.245 601.217 738.192 600.537 740.799 599.177C743.434 597.789 745.629 595.806 747.386 593.227L751.976 595.692C749.908 599.064 747.089 601.685 743.519 603.555C739.977 605.425 736.039 606.36 731.704 606.36ZM714.491 579.16H747.259C746.89 576.44 745.941 574.046 744.411 571.977C742.881 569.881 740.94 568.237 738.589 567.047C736.265 565.857 733.715 565.262 730.939 565.262C728.077 565.262 725.47 565.857 723.119 567.047C720.767 568.209 718.826 569.838 717.296 571.935C715.794 574.003 714.859 576.412 714.491 579.16Z" fill="#00D6C9"/>
<defs>
<linearGradient id="paint0_linear_4_31" x1="277" y1="319" x2="277" y2="760.5" gradientUnits="userSpaceOnUse">
<stop stop-color="#00D6C9"/>
<stop offset="1" stop-color="#310057"/>
</linearGradient>
</defs>
</svg>
