<svg width="2647" height="794" viewBox="0 0 2647 794" fill="none" xmlns="http://www.w3.org/2000/svg">
<rect width="2647" height="794" fill="url(#paint0_linear_103_11)"/>
<path d="M273.5 542.25C273.5 583.809 239.809 617.5 198.25 617.5C156.691 617.5 123 583.809 123 542.25L178.463 233.715C183.129 210.334 203.655 176 252.495 176C252.495 176 252.495 176 252.495 176C252.495 176 381.663 176 405.505 176C454.345 176 474.871 210.334 479.537 233.715L535 542.25C535 583.809 501.309 617.5 459.75 617.5C418.191 617.5 384.5 583.809 384.5 542.25" stroke="white" stroke-width="50" stroke-linecap="round"/>
<path d="M409.25 393.097L401.373 333.553L393.866 284.703C391.992 272.505 381.497 263.5 369.157 263.5H287.555C275.122 263.5 264.578 272.636 262.809 284.942L242.106 428.942C239.939 444.01 251.629 457.5 266.851 457.5H412" stroke="white" stroke-width="25" stroke-linecap="round"/>
<path d="M361.5 313C361.5 330.949 346.949 345.5 329 345.5C311.051 345.5 296.5 330.949 296.5 313" stroke="white" stroke-width="25" stroke-linecap="round"/>
<path d="M614.6 568V363.2H687.6V384C698.533 374.4 708.733 367.467 718.2 363.2C727.667 358.933 737.867 356.8 748.8 356.8C764.133 356.8 778.133 360.2 790.8 367C803.6 373.8 812.867 382.867 818.6 394.2C829.267 381.4 840.2 372 851.4 366C862.733 359.867 875.333 356.8 889.2 356.8C904.133 356.8 917.333 359.933 928.8 366.2C940.4 372.333 949.533 381.067 956.2 392.4C962.867 403.6 966.2 416.667 966.2 431.6V568H893.2V451.4C893.2 440.067 890.267 431.133 884.4 424.6C878.533 418.067 870.533 414.8 860.4 414.8C853.6 414.8 847.667 416.2 842.6 419C837.667 421.667 833.8 425.4 831 430.2C828.2 435 826.8 440.533 826.8 446.8V568H753.8V450.8C753.8 440 750.933 431.333 745.2 424.8C739.6 418.133 731.667 414.8 721.4 414.8C714.6 414.8 708.667 416.267 703.6 419.2C698.533 422 694.6 425.933 691.8 431C689 436.067 687.6 441.933 687.6 448.6V568H614.6ZM1114.83 574.4C1096.03 574.4 1078.97 569.733 1063.63 560.4C1048.3 550.933 1036.1 538 1027.03 521.6C1017.97 505.067 1013.43 486.267 1013.43 465.2C1013.43 444.8 1017.77 426.467 1026.43 410.2C1035.1 393.8 1047.03 380.8 1062.23 371.2C1077.43 361.6 1094.97 356.8 1114.83 356.8C1127.77 356.8 1140.03 359 1151.63 363.4C1163.37 367.8 1173.3 374 1181.43 382V363.2H1254.43V568H1181.43V546.8C1171.83 555.867 1161.43 562.733 1150.23 567.4C1139.17 572.067 1127.37 574.4 1114.83 574.4ZM1136.83 512.6C1145.9 512.6 1153.9 510.6 1160.83 506.6C1167.77 502.467 1173.17 496.867 1177.03 489.8C1180.9 482.733 1182.83 474.667 1182.83 465.6C1182.83 456.533 1180.83 448.467 1176.83 441.4C1172.97 434.333 1167.57 428.8 1160.63 424.8C1153.7 420.667 1145.77 418.6 1136.83 418.6C1128.03 418.6 1120.1 420.667 1113.03 424.8C1106.1 428.8 1100.57 434.333 1096.43 441.4C1092.43 448.467 1090.43 456.533 1090.43 465.6C1090.43 474.533 1092.43 482.6 1096.43 489.8C1100.43 496.867 1105.9 502.467 1112.83 506.6C1119.9 510.6 1127.9 512.6 1136.83 512.6ZM1321.63 568V363.2H1394.63V392.2C1402.76 381 1412.43 372.333 1423.63 366.2C1434.83 359.933 1446.63 356.8 1459.03 356.8C1466.63 356.8 1474.56 358 1482.83 360.4C1491.1 362.8 1497.96 365.933 1503.43 369.8L1473.03 431.2C1468.23 427.867 1462.63 425.2 1456.23 423.2C1449.83 421.067 1443.9 420 1438.43 420C1430.96 420 1423.83 421.933 1417.03 425.8C1410.36 429.667 1404.96 434.733 1400.83 441C1396.7 447.133 1394.63 453.8 1394.63 461V568H1321.63ZM1612.1 574.4C1593.3 574.4 1576.23 569.733 1560.9 560.4C1545.57 550.933 1533.37 538 1524.3 521.6C1515.23 505.067 1510.7 486.267 1510.7 465.2C1510.7 444.8 1515.03 426.467 1523.7 410.2C1532.37 393.8 1544.3 380.8 1559.5 371.2C1574.7 361.6 1592.23 356.8 1612.1 356.8C1625.03 356.8 1637.3 359 1648.9 363.4C1660.63 367.8 1670.57 374 1678.7 382V363.2H1751.7V568H1678.7V546.8C1669.1 555.867 1658.7 562.733 1647.5 567.4C1636.43 572.067 1624.63 574.4 1612.1 574.4ZM1634.1 512.6C1643.17 512.6 1651.17 510.6 1658.1 506.6C1665.03 502.467 1670.43 496.867 1674.3 489.8C1678.17 482.733 1680.1 474.667 1680.1 465.6C1680.1 456.533 1678.1 448.467 1674.1 441.4C1670.23 434.333 1664.83 428.8 1657.9 424.8C1650.97 420.667 1643.03 418.6 1634.1 418.6C1625.3 418.6 1617.37 420.667 1610.3 424.8C1603.37 428.8 1597.83 434.333 1593.7 441.4C1589.7 448.467 1587.7 456.533 1587.7 465.6C1587.7 474.533 1589.7 482.6 1593.7 489.8C1597.7 496.867 1603.17 502.467 1610.1 506.6C1617.17 510.6 1625.17 512.6 1634.1 512.6ZM1915.1 574.4C1899.36 574.4 1884.5 571.6 1870.5 566C1856.63 560.4 1844.36 552.6 1833.7 542.6C1823.03 532.6 1814.63 521.067 1808.5 508C1802.36 494.8 1799.3 480.733 1799.3 465.8C1799.3 451.533 1802.16 437.933 1807.9 425C1813.76 411.933 1821.9 400.267 1832.3 390C1842.7 379.733 1854.9 371.667 1868.9 365.8C1882.9 359.8 1898.16 356.8 1914.7 356.8C1927.9 356.8 1940.56 358.667 1952.7 362.4C1964.96 366 1974.63 370.533 1981.7 376L1957.5 425.2C1949.23 419.333 1938.83 416.4 1926.3 416.4C1915.23 416.4 1905.96 418.867 1898.5 423.8C1891.03 428.733 1885.43 435 1881.7 442.6C1878.1 450.2 1876.3 457.867 1876.3 465.6C1876.3 474.533 1878.36 482.733 1882.5 490.2C1886.63 497.667 1892.5 503.667 1900.1 508.2C1907.7 512.6 1916.56 514.8 1926.7 514.8C1933.1 514.8 1938.96 514 1944.3 512.4C1949.63 510.667 1954.03 508.533 1957.5 506L1981.7 555.2C1974.5 560.533 1964.9 565.067 1952.9 568.8C1940.9 572.533 1928.3 574.4 1915.1 574.4ZM2025.93 568V224H2098.93V384C2107.73 375.6 2118.06 369 2129.93 364.2C2141.79 359.267 2154.26 356.8 2167.33 356.8C2183.06 356.8 2196.99 360.267 2209.13 367.2C2221.26 374.133 2230.79 383.733 2237.73 396C2244.79 408.133 2248.33 422.067 2248.33 437.8V568H2175.33V453.4C2175.33 441.133 2171.93 431.4 2165.13 424.2C2158.33 417 2149.13 413.4 2137.53 413.4C2129.66 413.4 2122.86 415.067 2117.13 418.4C2111.39 421.6 2106.93 426.067 2103.73 431.8C2100.53 437.4 2098.93 443.867 2098.93 451.2V568H2025.93ZM2410.88 574.4C2388.48 574.4 2368.34 569.6 2350.48 560C2332.61 550.4 2318.48 537.4 2308.08 521C2297.81 504.6 2292.68 486.067 2292.68 465.4C2292.68 450.067 2295.61 435.867 2301.48 422.8C2307.34 409.6 2315.54 398.067 2326.08 388.2C2336.61 378.2 2348.88 370.467 2362.88 365C2377.01 359.533 2392.28 356.8 2408.68 356.8C2430.01 356.8 2448.68 361.267 2464.68 370.2C2480.81 379 2493.41 391.333 2502.48 407.2C2511.54 422.933 2516.08 441.2 2516.08 462C2516.08 463.733 2516.01 465.333 2515.88 466.8C2515.88 468.267 2515.68 471.2 2515.28 475.6H2367.88C2367.88 483.867 2369.81 491.067 2373.68 497.2C2377.54 503.333 2383.01 508.133 2390.08 511.6C2397.14 514.933 2405.48 516.6 2415.08 516.6C2424.01 516.6 2431.81 514.933 2438.48 511.6C2445.14 508.133 2452.21 502.467 2459.68 494.6L2512.08 520.8C2502.48 537.6 2488.68 550.733 2470.68 560.2C2452.81 569.667 2432.88 574.4 2410.88 574.4ZM2370.08 438.8H2444.48C2443.54 432.133 2441.41 426.533 2438.08 422C2434.74 417.467 2430.48 414.067 2425.28 411.8C2420.08 409.4 2414.01 408.2 2407.08 408.2C2399.88 408.2 2393.54 409.4 2388.07 411.8C2382.74 414.2 2378.54 417.667 2375.48 422.2C2372.41 426.733 2370.61 432.267 2370.08 438.8Z" fill="white"/>
<defs>
<linearGradient id="paint0_linear_103_11" x1="1323.5" y1="0" x2="1323.5" y2="794" gradientUnits="userSpaceOnUse">
<stop stop-color="#00D6C9"/>
<stop offset="1" stop-color="#310057"/>
</linearGradient>
</defs>
</svg>
