<svg width="963" height="492" viewBox="0 0 963 492" fill="none" xmlns="http://www.w3.org/2000/svg">
<path d="M175.5 391.25C175.5 432.809 141.809 466.5 100.25 466.5C58.6906 466.5 25 432.809 25 391.25L80.4628 82.7148C85.1287 59.3339 105.655 25 154.495 25C154.495 25 154.495 25 154.495 25C154.495 25 283.663 25 307.505 25C356.345 25 376.871 59.3339 381.537 82.7148L437 391.25C437 432.809 403.309 466.5 361.75 466.5C320.191 466.5 286.5 432.809 286.5 391.25" stroke="url(#paint0_linear_101_2)" stroke-width="50" stroke-linecap="round"/>
<path d="M311.25 242.097L303.373 182.553L295.866 133.703C293.992 121.505 283.497 112.5 271.156 112.5H189.554C177.121 112.5 166.578 121.636 164.809 133.942L144.105 277.942C141.939 293.01 153.628 306.5 168.851 306.5H314" stroke="#310057" stroke-width="25" stroke-linecap="round"/>
<path d="M263.5 162C263.5 179.949 248.949 194.5 231 194.5C213.05 194.5 198.5 179.949 198.5 162" stroke="#310057" stroke-width="25" stroke-linecap="round"/>
<path d="M511.203 233.36C507.208 233.36 503.581 232.368 500.323 230.385C497.064 228.373 494.472 225.625 492.545 222.14C490.618 218.627 489.655 214.632 489.655 210.155C489.655 205.82 490.576 201.924 492.418 198.467C494.259 194.982 496.795 192.22 500.025 190.18C503.255 188.14 506.981 187.12 511.203 187.12C513.951 187.12 516.558 187.588 519.023 188.522C521.516 189.457 523.627 190.775 525.355 192.475V188.48H540.868V232H525.355V227.495C523.315 229.422 521.105 230.881 518.725 231.872C516.373 232.864 513.866 233.36 511.203 233.36ZM515.878 220.227C517.804 220.227 519.504 219.802 520.978 218.952C522.451 218.074 523.598 216.884 524.42 215.382C525.242 213.881 525.653 212.167 525.653 210.24C525.653 208.313 525.228 206.599 524.378 205.097C523.556 203.596 522.408 202.42 520.935 201.57C519.462 200.692 517.776 200.252 515.878 200.252C514.008 200.252 512.322 200.692 510.82 201.57C509.347 202.42 508.171 203.596 507.293 205.097C506.443 206.599 506.018 208.313 506.018 210.24C506.018 212.138 506.443 213.852 507.293 215.382C508.143 216.884 509.304 218.074 510.778 218.952C512.279 219.802 513.979 220.227 515.878 220.227ZM555.147 232V188.48H570.659V192.9C572.983 190.86 575.15 189.387 577.162 188.48C579.174 187.573 581.341 187.12 583.664 187.12C586.923 187.12 589.898 187.843 592.589 189.288C595.309 190.732 597.279 192.659 598.497 195.067C600.764 192.347 603.087 190.35 605.467 189.075C607.875 187.772 610.553 187.12 613.499 187.12C616.673 187.12 619.478 187.786 621.914 189.117C624.379 190.421 626.32 192.277 627.737 194.685C629.154 197.065 629.862 199.842 629.862 203.015V232H614.349V207.222C614.349 204.814 613.726 202.916 612.479 201.527C611.233 200.139 609.533 199.445 607.379 199.445C605.934 199.445 604.674 199.742 603.597 200.337C602.549 200.904 601.727 201.697 601.132 202.717C600.537 203.737 600.239 204.913 600.239 206.245V232H584.727V207.095C584.727 204.8 584.118 202.958 582.899 201.57C581.709 200.153 580.024 199.445 577.842 199.445C576.397 199.445 575.136 199.757 574.059 200.38C572.983 200.975 572.147 201.811 571.552 202.887C570.957 203.964 570.659 205.211 570.659 206.627V232H555.147ZM661.447 233.36C657.452 233.36 653.825 232.368 650.567 230.385C647.308 228.373 644.716 225.625 642.789 222.14C640.862 218.627 639.899 214.632 639.899 210.155C639.899 205.82 640.82 201.924 642.662 198.467C644.503 194.982 647.039 192.22 650.269 190.18C653.499 188.14 657.225 187.12 661.447 187.12C664.195 187.12 666.802 187.588 669.267 188.522C671.76 189.457 673.871 190.775 675.599 192.475V188.48H691.112V232H675.599V227.495C673.559 229.422 671.349 230.881 668.969 231.872C666.617 232.864 664.11 233.36 661.447 233.36ZM666.122 220.227C668.048 220.227 669.748 219.802 671.222 218.952C672.695 218.074 673.842 216.884 674.664 215.382C675.486 213.881 675.897 212.167 675.897 210.24C675.897 208.313 675.472 206.599 674.622 205.097C673.8 203.596 672.652 202.42 671.179 201.57C669.706 200.692 668.02 200.252 666.122 200.252C664.252 200.252 662.566 200.692 661.064 201.57C659.591 202.42 658.415 203.596 657.537 205.097C656.687 206.599 656.262 208.313 656.262 210.24C656.262 212.138 656.687 213.852 657.537 215.382C658.387 216.884 659.548 218.074 661.022 218.952C662.523 219.802 664.223 220.227 666.122 220.227ZM705.391 232V188.48H720.903V194.642C722.632 192.262 724.686 190.421 727.066 189.117C729.446 187.786 731.953 187.12 734.588 187.12C736.203 187.12 737.889 187.375 739.646 187.885C741.403 188.395 742.862 189.061 744.023 189.882L737.563 202.93C736.543 202.222 735.353 201.655 733.993 201.23C732.633 200.777 731.373 200.55 730.211 200.55C728.624 200.55 727.108 200.961 725.663 201.782C724.247 202.604 723.099 203.681 722.221 205.012C721.343 206.316 720.903 207.732 720.903 209.262V232H705.391ZM767.116 233.36C763.121 233.36 759.494 232.368 756.236 230.385C752.977 228.373 750.385 225.625 748.458 222.14C746.531 218.627 745.568 214.632 745.568 210.155C745.568 205.82 746.489 201.924 748.331 198.467C750.172 194.982 752.708 192.22 755.938 190.18C759.168 188.14 762.894 187.12 767.116 187.12C769.864 187.12 772.471 187.588 774.936 188.522C777.429 189.457 779.54 190.775 781.268 192.475V188.48H796.781V232H781.268V227.495C779.228 229.422 777.018 230.881 774.638 231.872C772.286 232.864 769.779 233.36 767.116 233.36ZM771.791 220.227C773.717 220.227 775.417 219.802 776.891 218.952C778.364 218.074 779.511 216.884 780.333 215.382C781.155 213.881 781.566 212.167 781.566 210.24C781.566 208.313 781.141 206.599 780.291 205.097C779.469 203.596 778.321 202.42 776.848 201.57C775.375 200.692 773.689 200.252 771.791 200.252C769.921 200.252 768.235 200.692 766.733 201.57C765.26 202.42 764.084 203.596 763.206 205.097C762.356 206.599 761.931 208.313 761.931 210.24C761.931 212.138 762.356 213.852 763.206 215.382C764.056 216.884 765.217 218.074 766.691 218.952C768.192 219.802 769.892 220.227 771.791 220.227ZM831.502 233.36C828.159 233.36 825 232.765 822.025 231.575C819.078 230.385 816.472 228.727 814.205 226.602C811.938 224.477 810.153 222.027 808.85 219.25C807.547 216.445 806.895 213.456 806.895 210.282C806.895 207.251 807.504 204.361 808.722 201.612C809.969 198.836 811.697 196.357 813.907 194.175C816.117 191.993 818.71 190.279 821.685 189.032C824.66 187.757 827.904 187.12 831.417 187.12C834.222 187.12 836.914 187.517 839.492 188.31C842.099 189.075 844.153 190.038 845.655 191.2L840.512 201.655C838.756 200.408 836.546 199.785 833.882 199.785C831.531 199.785 829.562 200.309 827.975 201.357C826.388 202.406 825.198 203.737 824.405 205.352C823.64 206.967 823.257 208.597 823.257 210.24C823.257 212.138 823.697 213.881 824.575 215.467C825.453 217.054 826.7 218.329 828.315 219.292C829.93 220.227 831.814 220.695 833.967 220.695C835.327 220.695 836.574 220.525 837.707 220.185C838.841 219.817 839.776 219.363 840.512 218.825L845.655 229.28C844.125 230.413 842.085 231.377 839.535 232.17C836.985 232.963 834.307 233.36 831.502 233.36ZM855.054 232V158.9H870.567V192.9C872.437 191.115 874.632 189.712 877.154 188.692C879.676 187.644 882.325 187.12 885.102 187.12C888.445 187.12 891.406 187.857 893.984 189.33C896.562 190.803 898.588 192.843 900.062 195.45C901.563 198.028 902.314 200.989 902.314 204.332V232H886.802V207.647C886.802 205.041 886.079 202.972 884.634 201.442C883.189 199.912 881.234 199.147 878.769 199.147C877.097 199.147 875.652 199.502 874.434 200.21C873.216 200.89 872.267 201.839 871.587 203.057C870.907 204.247 870.567 205.622 870.567 207.18V232H855.054ZM936.855 233.36C932.095 233.36 927.817 232.34 924.02 230.3C920.224 228.26 917.22 225.497 915.01 222.012C912.829 218.527 911.738 214.589 911.738 210.197C911.738 206.939 912.361 203.922 913.608 201.145C914.854 198.34 916.597 195.889 918.835 193.792C921.074 191.667 923.68 190.024 926.655 188.862C929.659 187.701 932.903 187.12 936.388 187.12C940.921 187.12 944.888 188.069 948.288 189.967C951.716 191.837 954.394 194.458 956.32 197.83C958.247 201.173 959.21 205.055 959.21 209.475C959.21 209.843 959.196 210.183 959.168 210.495C959.168 210.807 959.125 211.43 959.04 212.365H927.718C927.718 214.122 928.129 215.652 928.95 216.955C929.772 218.258 930.934 219.278 932.435 220.015C933.937 220.723 935.708 221.078 937.748 221.078C939.646 221.078 941.304 220.723 942.72 220.015C944.137 219.278 945.639 218.074 947.225 216.402L958.36 221.97C956.32 225.54 953.388 228.331 949.563 230.342C945.766 232.354 941.53 233.36 936.855 233.36ZM928.185 204.545H943.995C943.797 203.128 943.344 201.938 942.635 200.975C941.927 200.012 941.02 199.289 939.915 198.807C938.81 198.297 937.521 198.042 936.048 198.042C934.518 198.042 933.172 198.297 932.01 198.807C930.877 199.317 929.984 200.054 929.333 201.017C928.681 201.981 928.299 203.157 928.185 204.545Z" fill="#310057"/>
<path d="M506.443 312.36C502.844 312.36 499.671 311.496 496.922 309.767C494.174 308.011 492.035 305.532 490.505 302.33L493.82 298.76C495.18 301.537 496.951 303.704 499.133 305.262C501.314 306.792 503.737 307.557 506.4 307.557C508.185 307.557 509.814 307.189 511.288 306.452C512.789 305.716 513.979 304.667 514.858 303.307C515.764 301.919 516.218 300.276 516.218 298.377C516.218 296.649 515.793 295.289 514.943 294.297C514.121 293.306 512.903 292.456 511.288 291.747C509.701 291.011 507.718 290.189 505.338 289.282C503.496 288.546 501.711 287.71 499.983 286.775C498.254 285.84 496.823 284.664 495.69 283.247C494.585 281.802 494.033 279.975 494.033 277.765C494.033 275.527 494.628 273.543 495.818 271.815C497.008 270.058 498.651 268.684 500.748 267.692C502.844 266.672 505.224 266.162 507.888 266.162C510.324 266.162 512.605 266.687 514.73 267.735C516.883 268.783 518.81 270.271 520.51 272.197L517.663 275.81C515.056 272.382 511.812 270.667 507.93 270.667C505.55 270.667 503.609 271.291 502.108 272.537C500.634 273.784 499.898 275.413 499.898 277.425C499.898 278.87 500.365 280.074 501.3 281.037C502.235 282.001 503.453 282.822 504.955 283.502C506.485 284.182 508.128 284.862 509.885 285.542C512.435 286.506 514.645 287.469 516.515 288.432C518.413 289.396 519.887 290.628 520.935 292.13C521.983 293.603 522.508 295.615 522.508 298.165C522.508 301.083 521.828 303.605 520.468 305.73C519.108 307.855 517.209 309.498 514.773 310.66C512.364 311.793 509.588 312.36 506.443 312.36ZM547.313 312.36C544.055 312.36 541.519 311.269 539.705 309.087C537.92 306.877 537.028 303.775 537.028 299.78V272.155H532.608V267.48H537.028V251.202H543.233V267.48H554.07V272.155H543.233V299.44C543.233 301.848 543.7 303.69 544.635 304.965C545.57 306.24 546.902 306.877 548.63 306.877C550.302 306.877 551.775 306.41 553.05 305.475L554.623 310.405C553.66 311 552.526 311.468 551.223 311.808C549.92 312.176 548.616 312.36 547.313 312.36ZM588.967 312.36C584.434 312.36 580.339 311.383 576.684 309.427C573.058 307.472 570.182 304.752 568.057 301.267C565.932 297.782 564.869 293.773 564.869 289.24C564.869 284.678 565.932 280.669 568.057 277.212C570.182 273.727 573.058 271.007 576.684 269.052C580.311 267.097 584.405 266.12 588.967 266.12C593.5 266.12 597.58 267.097 601.207 269.052C604.862 271.007 607.752 273.727 609.877 277.212C612.002 280.669 613.064 284.678 613.064 289.24C613.064 293.773 612.002 297.782 609.877 301.267C607.752 304.752 604.862 307.472 601.207 309.427C597.58 311.383 593.5 312.36 588.967 312.36ZM588.967 306.835C592.367 306.835 595.399 306.084 598.062 304.582C600.725 303.081 602.822 301.012 604.352 298.377C605.882 295.714 606.647 292.668 606.647 289.24C606.647 285.812 605.882 282.78 604.352 280.145C602.822 277.482 600.725 275.399 598.062 273.897C595.399 272.396 592.367 271.645 588.967 271.645C585.567 271.645 582.535 272.396 579.872 273.897C577.209 275.399 575.112 277.482 573.582 280.145C572.052 282.78 571.287 285.812 571.287 289.24C571.287 292.64 572.052 295.672 573.582 298.335C575.112 300.998 577.209 303.081 579.872 304.582C582.535 306.084 585.567 306.835 588.967 306.835ZM627.867 311V267.48H634.072V273.897C635.46 271.347 637.245 269.421 639.427 268.117C641.637 266.786 644.187 266.12 647.077 266.12C648.352 266.12 649.641 266.262 650.944 266.545C652.276 266.828 653.424 267.197 654.387 267.65L651.837 272.877C650.987 272.452 650.009 272.127 648.904 271.9C647.828 271.673 646.794 271.56 645.802 271.56C643.79 271.56 641.892 272.07 640.107 273.09C638.322 274.11 636.863 275.442 635.729 277.085C634.624 278.7 634.072 280.428 634.072 282.27V311H627.867ZM685.704 312.36C681.142 312.36 677.062 311.354 673.464 309.342C669.894 307.331 667.089 304.597 665.049 301.14C663.009 297.655 661.989 293.745 661.989 289.41C661.989 286.152 662.569 283.12 663.731 280.315C664.921 277.482 666.564 275.002 668.661 272.877C670.758 270.752 673.194 269.095 675.971 267.905C678.748 266.715 681.709 266.12 684.854 266.12C689.16 266.12 692.985 267.069 696.329 268.967C699.7 270.837 702.364 273.43 704.319 276.745C706.302 280.06 707.35 283.885 707.464 288.22C707.464 288.56 707.449 288.843 707.421 289.07C707.421 289.268 707.393 289.523 707.336 289.835H668.151C668.151 293.235 668.916 296.238 670.446 298.845C671.976 301.452 674.073 303.506 676.736 305.007C679.428 306.481 682.502 307.217 685.959 307.217C689.245 307.217 692.192 306.537 694.799 305.177C697.434 303.789 699.629 301.806 701.386 299.227L705.976 301.692C703.908 305.064 701.089 307.685 697.519 309.555C693.977 311.425 690.039 312.36 685.704 312.36ZM668.491 285.16H701.259C700.89 282.44 699.941 280.046 698.411 277.977C696.881 275.881 694.94 274.237 692.589 273.047C690.265 271.857 687.715 271.262 684.939 271.262C682.077 271.262 679.47 271.857 677.119 273.047C674.767 274.209 672.826 275.838 671.296 277.935C669.794 280.003 668.859 282.412 668.491 285.16Z" fill="#00D6C9"/>
<defs>
<linearGradient id="paint0_linear_101_2" x1="231" y1="25" x2="231" y2="466.5" gradientUnits="userSpaceOnUse">
<stop stop-color="#00D6C9"/>
<stop offset="1" stop-color="#310057"/>
</linearGradient>
</defs>
</svg>
