<svg width="1080" height="1080" viewBox="0 0 1080 1080" fill="none" xmlns="http://www.w3.org/2000/svg">
<rect width="1080" height="1080" fill="url(#paint0_linear_6_47)"/>
<path d="M484.5 580.25C484.5 621.809 450.809 655.5 409.25 655.5C367.691 655.5 334 621.809 334 580.25L389.463 271.715C394.129 248.334 414.655 214 463.495 214C463.495 214 463.495 214 463.495 214C463.495 214 592.663 214 616.505 214C665.345 214 685.871 248.334 690.537 271.715L746 580.25C746 621.809 712.309 655.5 670.75 655.5C629.191 655.5 595.5 621.809 595.5 580.25" stroke="white" stroke-width="50" stroke-linecap="round"/>
<path d="M620.25 431.097L612.373 371.553L604.866 322.703C602.992 310.505 592.497 301.5 580.156 301.5H498.554C486.121 301.5 475.578 310.636 473.809 322.942L453.105 466.942C450.939 482.01 462.628 495.5 477.851 495.5H623" stroke="white" stroke-width="25" stroke-linecap="round"/>
<path d="M572.5 351C572.5 368.949 557.949 383.5 540 383.5C522.05 383.5 507.5 368.949 507.5 351" stroke="white" stroke-width="25" stroke-linecap="round"/>
<path d="M326.203 776.36C322.208 776.36 318.581 775.368 315.323 773.385C312.064 771.373 309.472 768.625 307.545 765.14C305.618 761.627 304.655 757.632 304.655 753.155C304.655 748.82 305.576 744.924 307.418 741.467C309.259 737.982 311.795 735.22 315.025 733.18C318.255 731.14 321.981 730.12 326.203 730.12C328.951 730.12 331.558 730.588 334.023 731.522C336.516 732.457 338.627 733.775 340.355 735.475V731.48H355.868V775H340.355V770.495C338.315 772.422 336.105 773.881 333.725 774.872C331.373 775.864 328.866 776.36 326.203 776.36ZM330.878 763.227C332.804 763.227 334.504 762.802 335.978 761.952C337.451 761.074 338.598 759.884 339.42 758.382C340.242 756.881 340.653 755.167 340.653 753.24C340.653 751.313 340.228 749.599 339.378 748.097C338.556 746.596 337.408 745.42 335.935 744.57C334.462 743.692 332.776 743.252 330.878 743.252C329.008 743.252 327.322 743.692 325.82 744.57C324.347 745.42 323.171 746.596 322.293 748.097C321.443 749.599 321.018 751.313 321.018 753.24C321.018 755.138 321.443 756.852 322.293 758.382C323.143 759.884 324.304 761.074 325.778 761.952C327.279 762.802 328.979 763.227 330.878 763.227ZM370.147 775V731.48H385.659V735.9C387.983 733.86 390.15 732.387 392.162 731.48C394.174 730.573 396.341 730.12 398.664 730.12C401.923 730.12 404.898 730.843 407.589 732.288C410.309 733.732 412.279 735.659 413.497 738.067C415.764 735.347 418.087 733.35 420.467 732.075C422.875 730.772 425.553 730.12 428.499 730.12C431.673 730.12 434.478 730.786 436.914 732.117C439.379 733.421 441.32 735.277 442.737 737.685C444.154 740.065 444.862 742.842 444.862 746.015V775H429.349V750.222C429.349 747.814 428.726 745.916 427.479 744.527C426.233 743.139 424.533 742.445 422.379 742.445C420.934 742.445 419.674 742.742 418.597 743.337C417.549 743.904 416.727 744.697 416.132 745.717C415.537 746.737 415.239 747.913 415.239 749.245V775H399.727V750.095C399.727 747.8 399.118 745.958 397.899 744.57C396.709 743.153 395.024 742.445 392.842 742.445C391.397 742.445 390.136 742.757 389.059 743.38C387.983 743.975 387.147 744.811 386.552 745.887C385.957 746.964 385.659 748.211 385.659 749.627V775H370.147ZM476.447 776.36C472.452 776.36 468.825 775.368 465.567 773.385C462.308 771.373 459.716 768.625 457.789 765.14C455.862 761.627 454.899 757.632 454.899 753.155C454.899 748.82 455.82 744.924 457.662 741.467C459.503 737.982 462.039 735.22 465.269 733.18C468.499 731.14 472.225 730.12 476.447 730.12C479.195 730.12 481.802 730.588 484.267 731.522C486.76 732.457 488.871 733.775 490.599 735.475V731.48H506.112V775H490.599V770.495C488.559 772.422 486.349 773.881 483.969 774.872C481.617 775.864 479.11 776.36 476.447 776.36ZM481.122 763.227C483.048 763.227 484.748 762.802 486.222 761.952C487.695 761.074 488.842 759.884 489.664 758.382C490.486 756.881 490.897 755.167 490.897 753.24C490.897 751.313 490.472 749.599 489.622 748.097C488.8 746.596 487.652 745.42 486.179 744.57C484.706 743.692 483.02 743.252 481.122 743.252C479.252 743.252 477.566 743.692 476.064 744.57C474.591 745.42 473.415 746.596 472.537 748.097C471.687 749.599 471.262 751.313 471.262 753.24C471.262 755.138 471.687 756.852 472.537 758.382C473.387 759.884 474.548 761.074 476.022 761.952C477.523 762.802 479.223 763.227 481.122 763.227ZM520.391 775V731.48H535.903V737.642C537.632 735.262 539.686 733.421 542.066 732.117C544.446 730.786 546.953 730.12 549.588 730.12C551.203 730.12 552.889 730.375 554.646 730.885C556.403 731.395 557.862 732.061 559.023 732.882L552.563 745.93C551.543 745.222 550.353 744.655 548.993 744.23C547.633 743.777 546.373 743.55 545.211 743.55C543.624 743.55 542.108 743.961 540.663 744.782C539.247 745.604 538.099 746.681 537.221 748.012C536.343 749.316 535.903 750.732 535.903 752.262V775H520.391ZM582.116 776.36C578.121 776.36 574.494 775.368 571.236 773.385C567.977 771.373 565.385 768.625 563.458 765.14C561.531 761.627 560.568 757.632 560.568 753.155C560.568 748.82 561.489 744.924 563.331 741.467C565.172 737.982 567.708 735.22 570.938 733.18C574.168 731.14 577.894 730.12 582.116 730.12C584.864 730.12 587.471 730.588 589.936 731.522C592.429 732.457 594.54 733.775 596.268 735.475V731.48H611.781V775H596.268V770.495C594.228 772.422 592.018 773.881 589.638 774.872C587.286 775.864 584.779 776.36 582.116 776.36ZM586.791 763.227C588.717 763.227 590.417 762.802 591.891 761.952C593.364 761.074 594.511 759.884 595.333 758.382C596.155 756.881 596.566 755.167 596.566 753.24C596.566 751.313 596.141 749.599 595.291 748.097C594.469 746.596 593.321 745.42 591.848 744.57C590.375 743.692 588.689 743.252 586.791 743.252C584.921 743.252 583.235 743.692 581.733 744.57C580.26 745.42 579.084 746.596 578.206 748.097C577.356 749.599 576.931 751.313 576.931 753.24C576.931 755.138 577.356 756.852 578.206 758.382C579.056 759.884 580.217 761.074 581.691 761.952C583.192 762.802 584.892 763.227 586.791 763.227ZM646.502 776.36C643.159 776.36 640 775.765 637.025 774.575C634.078 773.385 631.472 771.727 629.205 769.602C626.938 767.477 625.153 765.027 623.85 762.25C622.547 759.445 621.895 756.456 621.895 753.282C621.895 750.251 622.504 747.361 623.722 744.612C624.969 741.836 626.697 739.357 628.907 737.175C631.117 734.993 633.71 733.279 636.685 732.032C639.66 730.757 642.904 730.12 646.417 730.12C649.222 730.12 651.914 730.517 654.492 731.31C657.099 732.075 659.153 733.038 660.655 734.2L655.512 744.655C653.756 743.408 651.546 742.785 648.882 742.785C646.531 742.785 644.562 743.309 642.975 744.357C641.388 745.406 640.198 746.737 639.405 748.352C638.64 749.967 638.257 751.597 638.257 753.24C638.257 755.138 638.697 756.881 639.575 758.467C640.453 760.054 641.7 761.329 643.315 762.292C644.93 763.227 646.814 763.695 648.967 763.695C650.327 763.695 651.574 763.525 652.707 763.185C653.841 762.817 654.776 762.363 655.512 761.825L660.655 772.28C659.125 773.413 657.085 774.377 654.535 775.17C651.985 775.963 649.307 776.36 646.502 776.36ZM670.054 775V701.9H685.567V735.9C687.437 734.115 689.632 732.712 692.154 731.692C694.676 730.644 697.325 730.12 700.102 730.12C703.445 730.12 706.406 730.857 708.984 732.33C711.562 733.803 713.588 735.843 715.062 738.45C716.563 741.028 717.314 743.989 717.314 747.332V775H701.802V750.647C701.802 748.041 701.079 745.972 699.634 744.442C698.189 742.912 696.234 742.147 693.769 742.147C692.097 742.147 690.652 742.502 689.434 743.21C688.216 743.89 687.267 744.839 686.587 746.057C685.907 747.247 685.567 748.622 685.567 750.18V775H670.054ZM751.855 776.36C747.095 776.36 742.817 775.34 739.02 773.3C735.224 771.26 732.22 768.497 730.01 765.012C727.829 761.527 726.738 757.589 726.738 753.197C726.738 749.939 727.361 746.922 728.608 744.145C729.854 741.34 731.597 738.889 733.835 736.792C736.074 734.667 738.68 733.024 741.655 731.862C744.659 730.701 747.903 730.12 751.388 730.12C755.921 730.12 759.888 731.069 763.288 732.967C766.716 734.837 769.394 737.458 771.32 740.83C773.247 744.173 774.21 748.055 774.21 752.475C774.21 752.843 774.196 753.183 774.168 753.495C774.168 753.807 774.125 754.43 774.04 755.365H742.718C742.718 757.122 743.129 758.652 743.95 759.955C744.772 761.258 745.934 762.278 747.435 763.015C748.937 763.723 750.708 764.078 752.748 764.078C754.646 764.078 756.304 763.723 757.72 763.015C759.137 762.278 760.639 761.074 762.225 759.402L773.36 764.97C771.32 768.54 768.388 771.331 764.563 773.342C760.766 775.354 756.53 776.36 751.855 776.36ZM743.185 747.545H758.995C758.797 746.128 758.344 744.938 757.635 743.975C756.927 743.012 756.02 742.289 754.915 741.807C753.81 741.297 752.521 741.042 751.048 741.042C749.518 741.042 748.172 741.297 747.01 741.807C745.877 742.317 744.984 743.054 744.333 744.017C743.681 744.981 743.299 746.157 743.185 747.545Z" fill="white"/>
<path d="M446.443 855.36C442.844 855.36 439.671 854.496 436.922 852.767C434.174 851.011 432.035 848.532 430.505 845.33L433.82 841.76C435.18 844.537 436.951 846.704 439.133 848.262C441.314 849.792 443.737 850.557 446.4 850.557C448.185 850.557 449.814 850.189 451.288 849.452C452.789 848.716 453.979 847.667 454.858 846.307C455.764 844.919 456.218 843.276 456.218 841.377C456.218 839.649 455.793 838.289 454.943 837.297C454.121 836.306 452.903 835.456 451.288 834.747C449.701 834.011 447.718 833.189 445.338 832.282C443.496 831.546 441.711 830.71 439.983 829.775C438.254 828.84 436.823 827.664 435.69 826.247C434.585 824.802 434.033 822.975 434.033 820.765C434.033 818.527 434.628 816.543 435.818 814.815C437.008 813.058 438.651 811.684 440.748 810.692C442.844 809.672 445.224 809.162 447.888 809.162C450.324 809.162 452.605 809.687 454.73 810.735C456.883 811.783 458.81 813.271 460.51 815.197L457.663 818.81C455.056 815.382 451.812 813.667 447.93 813.667C445.55 813.667 443.609 814.291 442.108 815.537C440.634 816.784 439.898 818.413 439.898 820.425C439.898 821.87 440.365 823.074 441.3 824.037C442.235 825.001 443.453 825.822 444.955 826.502C446.485 827.182 448.128 827.862 449.885 828.542C452.435 829.506 454.645 830.469 456.515 831.432C458.413 832.396 459.887 833.628 460.935 835.13C461.983 836.603 462.508 838.615 462.508 841.165C462.508 844.083 461.828 846.605 460.468 848.73C459.108 850.855 457.209 852.498 454.773 853.66C452.364 854.793 449.588 855.36 446.443 855.36ZM487.313 855.36C484.055 855.36 481.519 854.269 479.705 852.087C477.92 849.877 477.028 846.775 477.028 842.78V815.155H472.608V810.48H477.028V794.202H483.233V810.48H494.07V815.155H483.233V842.44C483.233 844.848 483.7 846.69 484.635 847.965C485.57 849.24 486.902 849.877 488.63 849.877C490.302 849.877 491.775 849.41 493.05 848.475L494.623 853.405C493.66 854 492.526 854.468 491.223 854.808C489.92 855.176 488.616 855.36 487.313 855.36ZM528.967 855.36C524.434 855.36 520.339 854.383 516.684 852.427C513.058 850.472 510.182 847.752 508.057 844.267C505.932 840.782 504.869 836.773 504.869 832.24C504.869 827.678 505.932 823.669 508.057 820.212C510.182 816.727 513.058 814.007 516.684 812.052C520.311 810.097 524.405 809.12 528.967 809.12C533.5 809.12 537.58 810.097 541.207 812.052C544.862 814.007 547.752 816.727 549.877 820.212C552.002 823.669 553.064 827.678 553.064 832.24C553.064 836.773 552.002 840.782 549.877 844.267C547.752 847.752 544.862 850.472 541.207 852.427C537.58 854.383 533.5 855.36 528.967 855.36ZM528.967 849.835C532.367 849.835 535.399 849.084 538.062 847.582C540.725 846.081 542.822 844.012 544.352 841.377C545.882 838.714 546.647 835.668 546.647 832.24C546.647 828.812 545.882 825.78 544.352 823.145C542.822 820.482 540.725 818.399 538.062 816.897C535.399 815.396 532.367 814.645 528.967 814.645C525.567 814.645 522.535 815.396 519.872 816.897C517.209 818.399 515.112 820.482 513.582 823.145C512.052 825.78 511.287 828.812 511.287 832.24C511.287 835.64 512.052 838.672 513.582 841.335C515.112 843.998 517.209 846.081 519.872 847.582C522.535 849.084 525.567 849.835 528.967 849.835ZM567.867 854V810.48H574.072V816.897C575.46 814.347 577.245 812.421 579.427 811.117C581.637 809.786 584.187 809.12 587.077 809.12C588.352 809.12 589.641 809.262 590.944 809.545C592.276 809.828 593.424 810.197 594.387 810.65L591.837 815.877C590.987 815.452 590.009 815.127 588.904 814.9C587.828 814.673 586.794 814.56 585.802 814.56C583.79 814.56 581.892 815.07 580.107 816.09C578.322 817.11 576.863 818.442 575.729 820.085C574.624 821.7 574.072 823.428 574.072 825.27V854H567.867ZM625.704 855.36C621.142 855.36 617.062 854.354 613.464 852.342C609.894 850.331 607.089 847.597 605.049 844.14C603.009 840.655 601.989 836.745 601.989 832.41C601.989 829.152 602.569 826.12 603.731 823.315C604.921 820.482 606.564 818.002 608.661 815.877C610.758 813.752 613.194 812.095 615.971 810.905C618.748 809.715 621.709 809.12 624.854 809.12C629.16 809.12 632.985 810.069 636.329 811.967C639.7 813.837 642.364 816.43 644.319 819.745C646.302 823.06 647.35 826.885 647.464 831.22C647.464 831.56 647.449 831.843 647.421 832.07C647.421 832.268 647.393 832.523 647.336 832.835H608.151C608.151 836.235 608.916 839.238 610.446 841.845C611.976 844.452 614.073 846.506 616.736 848.007C619.428 849.481 622.502 850.217 625.959 850.217C629.245 850.217 632.192 849.537 634.799 848.177C637.434 846.789 639.629 844.806 641.386 842.227L645.976 844.692C643.908 848.064 641.089 850.685 637.519 852.555C633.977 854.425 630.039 855.36 625.704 855.36ZM608.491 828.16H641.259C640.89 825.44 639.941 823.046 638.411 820.977C636.881 818.881 634.94 817.237 632.589 816.047C630.265 814.857 627.715 814.262 624.939 814.262C622.077 814.262 619.47 814.857 617.119 816.047C614.767 817.209 612.826 818.838 611.296 820.935C609.794 823.003 608.859 825.412 608.491 828.16Z" fill="white"/>
<defs>
<linearGradient id="paint0_linear_6_47" x1="540" y1="0" x2="540" y2="1080" gradientUnits="userSpaceOnUse">
<stop stop-color="#00D6C9"/>
<stop offset="1" stop-color="#310057"/>
</linearGradient>
</defs>
</svg>
